<svg id="Capa_1" data-name="Capa 1" xmlns="http://www.w3.org/2000/svg" viewBox="0 0 265.263 218.526"><path d="M138.283,211.676l10.138-2.357,30-100.463-8.718-2.357.7-2.351h44.738l-.7,2.351-10.125,2.357L189.6,158.145l52.488-46.932L231.716,106.5l.7-2.351h29.83l-.7,2.351-13.965,4.714-37.563,33.748,23.166,64.358,7.133,2.357-.7,2.35H217.647q-7.071,0-10.964-3.526a24.732,24.732,0,0,1-6.246-9.811l-12.763-36.1-13.358,44.735,8.7,2.357-.7,2.35H137.587Z" fill="#994a16"/><path d="M11.657,108.074,3.021,106.5v-2.351H21.865q8.318,0,13.657,3.769A20.364,20.364,0,0,1,43.06,117.5l23.7,60.442,13.824-40.5L68.956,108.074,60.332,106.5v-2.351H79.164q8.316,0,13.5,3.686a22.179,22.179,0,0,1,7.691,9.658l23.712,60.442,22.6-66.721L134.891,106.5v-2.351h29.051V106.5l-12.558,4.714-35.325,104.4h-4.714L83.086,143.872,58.761,215.613H54.047Z" fill="#994a16"/><path d="M172.747,65.771l-1.222,1.482,1.222-1.481Z" fill="#994a16"/><path d="M197.414,16.983a6.833,6.833,0,0,0,.4-1.451.949.949,0,0,0-.64-1.112,1.037,1.037,0,0,0-1.286.4c-.163.231-.293.484-.458.713a39.515,39.515,0,0,1-6.154,6.5,13.107,13.107,0,0,0-2.756,3.275c-.359.617-.682,1.254-1.022,1.881a6.46,6.46,0,0,1,1.563-3.975,1.069,1.069,0,0,0-1.313-1.675c-.319.173-.617.383-.928.571a17.239,17.239,0,0,0-7.793,9.906c-1.153,3.705.112,6.419,3.662,7.97.325.141.652.278,1.023.436a2.625,2.625,0,0,0-.772,1.952,2.424,2.424,0,0,0,1.066,1.858,23.879,23.879,0,0,1-8.854,1.5,8.225,8.225,0,0,1-4.825-1.733c-2.275-1.809-3.508-4.311-4.658-7.022,1.348.252,2.511.117,3.22-1.086a2.5,2.5,0,0,0-.53-3.236,6.861,6.861,0,0,0,2.066-9.9,6.782,6.782,0,0,0-9.326-1.6,6.533,6.533,0,0,0-2.833,4.35,6.758,6.758,0,0,0,2.065,6.265c-1.989,1.451-1.8,3.371.49,4.764-.673.607-1.307,1.221-1.986,1.78a17.011,17.011,0,0,1-9.378,3.519,10.568,10.568,0,0,1-8.3-2.44,33.238,33.238,0,0,1-3.408-3.509c-.77-.886-1.387-1.9-2.159-2.987,1.612.052,2.736-.481,3.058-1.983a2.519,2.519,0,0,0-1.56-2.913,7.362,7.362,0,0,1,.837-.045c.847-.031,1.7-.016,2.538-.115a5.117,5.117,0,0,0,4.665-4.178,11.325,11.325,0,0,0,.045-4.272c-.393-2.85-1.944-5.087-3.751-7.194-.483-.564-.934-.685-1.418-.4s-.561.709-.306,1.433a4.721,4.721,0,0,1-.473,3.924,11.893,11.893,0,0,0-1.529-5.867,25.237,25.237,0,0,1-3.312-7.623.965.965,0,0,0-1.881.022,23.481,23.481,0,0,1-2.719,6.573,12.925,12.925,0,0,0-1.829,4.253c-.117.786-.179,1.58-.284,2.543a4.87,4.87,0,0,1-.274-3.977.979.979,0,0,0-1.619-1.075c-.283.287-.524.614-.787.92a12.9,12.9,0,0,0-3.275,9.712,5.288,5.288,0,0,0,5.01,5.214c1.09.106,2.2.017,3.3.017-1.372,1.069-1.841,1.935-1.554,3.082A2.53,2.53,0,0,0,129.3,32.9a.7.7,0,0,1-.039.2,26.234,26.234,0,0,1-5.739,6.753,10.156,10.156,0,0,1-9.913,1.822,22.3,22.3,0,0,1-6.178-3.146c-.876-.625-1.711-1.306-2.624-2.008a2.571,2.571,0,0,0,.939-4.638,6.9,6.9,0,0,0-.039-10.256,6.819,6.819,0,0,0-9.246.287,6.54,6.54,0,0,0-2.014,4.723,6.785,6.785,0,0,0,3.2,5.9,2.483,2.483,0,0,0-.872,2.978c.66,1.609,2.017,1.72,3.535,1.436-.047.2-.064.314-.1.423-.2.57-.389,1.148-.626,1.7-1.35,3.16-3.5,5.457-6.949,6.286a16.76,16.76,0,0,1-7.331,0c-1.293-.263-2.567-.617-3.849-.93a2.488,2.488,0,0,0,1.3-1.906A2.614,2.614,0,0,0,82,40.411c.468-.2.9-.37,1.313-.561,3.041-1.392,4.324-3.8,3.548-7.04-1.231-5.143-4.44-8.782-9-11.294a1.416,1.416,0,0,0-1.165.129c-.549.327-.509,1.042.006,1.628a7.094,7.094,0,0,1,1.568,3.889c-.081-.049-.127-.061-.144-.09-.061-.1-.114-.212-.166-.32a14.847,14.847,0,0,0-3.663-4.837,33.734,33.734,0,0,1-6.48-7.085,1.01,1.01,0,0,0-1.279-.41.935.935,0,0,0-.655,1.1,6.02,6.02,0,0,0,.357,1.338q4.754,11.36,9.53,22.709c.285.679.561,1.363.836,2.033-1.342.769-1.819,1.791-1.329,2.981a2.851,2.851,0,0,0,.911,1.155c.676.5,1.418.216,2.134-.13.993,3.616,1.965,7.154,2.929,10.693a.737.737,0,0,1-.013.411,6.535,6.535,0,0,0,.506,4.923,6.363,6.363,0,0,1,.226,2.118c0,.08-.208.208-.341.253a3.915,3.915,0,0,0-2.294,2.037,5.822,5.822,0,0,0-.07,5.309,3.507,3.507,0,0,0,2.013,2,.969.969,0,0,1,.736,1.1c0,.242-.019.487,0,.727a1.3,1.3,0,0,1-.517,1.243,2.1,2.1,0,0,0,.03,3.4,2.967,2.967,0,0,0,.952.631,42.146,42.146,0,0,0,4.791,1.442,100.037,100.037,0,0,0,15.655,1.576c6.741.26,13.487.465,20.233.516,15.575.119,31.154.22,46.689-1.23a47.737,47.737,0,0,0,8.524-1.442,7.642,7.642,0,0,0,3.242-1.562,1.993,1.993,0,0,0,.169-3.091,2.159,2.159,0,0,1-.722-2.008,6.651,6.651,0,0,1,.019-.906,1.178,1.178,0,0,1,.356-.674,5.578,5.578,0,0,0,.31-8.322,1.755,1.755,0,0,1-.689-1.57,5.716,5.716,0,0,1,.533-2.736,4.6,4.6,0,0,0,.251-3.706,1.282,1.282,0,0,1,.036-.7q.817-3.071,1.662-6.134c.408-1.491.824-2.979,1.228-4.436a9.873,9.873,0,0,0,2.069.49,1.709,1.709,0,0,0,1.565-1.241c.512-1.236.11-2.219-1.289-3.127.061-.16.119-.328.188-.492Q192.36,29.037,197.414,16.983Zm-16.27,48.344c1.976,1.465,1.968,5.4,0,6.869Zm3.638-40.677c-.145,1.132-.357,2.317-.432,3.511a3.527,3.527,0,0,0,1.124,2.881,5.275,5.275,0,0,1,1.352,4.379c-.135,1.759-.54,3.5-.833,5.244a.5.5,0,0,1-.162.239,9.021,9.021,0,0,0-1.966-7.608c-1.988-2.422-1.787-4.56.094-7.546C184.222,25.333,184.55,24.957,184.782,24.65Zm-5.109,13.493a4.105,4.105,0,0,1-1.849-4.585,15.511,15.511,0,0,1,5.37-8.974l.163.1c-.609.9-1.178,1.836-1.836,2.7a11.253,11.253,0,0,0-2.436,4.671,3.812,3.812,0,0,0,1.154,3.641c.753.726,1.6,1.356,2.4,2.03a4.155,4.155,0,0,1,1.7,2.349c.018.094.02.191.04.394C182.751,39.68,181.137,39.034,179.673,38.143Zm-11.8,6.718a10.475,10.475,0,0,0,7.286,1.829,29.185,29.185,0,0,0,7.261-1.526c.128-.043.262-.068.553-.141a25.438,25.438,0,0,1-4.484,3.326,27.058,27.058,0,0,1-6.96,2.89,2.079,2.079,0,0,1-1.051-.011c-2.982-.865-5.954-1.758-8.929-2.645a.686.686,0,0,1-.414-.283l6.234,1.1.043-.122-5.082-2.307.019-.077,5.71.718.021-.095-6.235-1.953c.02-.1.039-.206.059-.31l4.273.3.041-.087-3.653-1.853.028-.076,3.4.408c-.712-.927-1.408-1.752-2.011-2.64a3.6,3.6,0,0,1-.834-2.965c.084.171.167.343.251.514A15.456,15.456,0,0,0,167.871,44.861ZM82.986,62.14a2,2,0,0,1,1.121-1.914,13.833,13.833,0,0,1,4.465-1.452,94.71,94.71,0,0,1,12.5-1.482c10.083-.621,20.179-.8,30.279-.746,7.251.041,14.5.131,21.75.313,3.914.1,7.823.426,11.733.67a58.711,58.711,0,0,1,11.132,1.581,18.175,18.175,0,0,1,2.823,1.062,2.06,2.06,0,0,1,1.3,2.1c-.046,4.121-.019,8.242-.019,12.364v.692c-1.04-.287-2.034-.6-3.048-.836a71.6,71.6,0,0,0-10.853-1.444c-14.358-1.037-28.741-1.019-43.123-.914-5.271.038-10.543.164-15.812.337-5.51.181-11.016.484-16.488,1.2a31.784,31.784,0,0,0-7.493,1.642,1.272,1.272,0,0,1-.25.023c0-2.516,0-4.979,0-7.443C83,65.978,83.037,64.058,82.986,62.14Zm91.169-4.483A97.892,97.892,0,0,0,160.86,56.2c-14.471-.821-28.956-.793-43.44-.545-5.794.1-11.587.379-17.374.7A74.151,74.151,0,0,0,87.74,57.9a15.385,15.385,0,0,0-2.61.758c-.969.411-1.869.985-2.836,1.509a1.231,1.231,0,0,1,.684-1.866A31.646,31.646,0,0,1,87.7,56.863a98.037,98.037,0,0,1,12.5-1.494c12.462-.888,24.944-1.067,37.429-.9,7.471.1,14.942.379,22.407.722a102.6,102.6,0,0,1,15.877,1.781c1.161.237,2.292.627,3.429.969a3.694,3.694,0,0,1,.814.4c.851.509.944.974.382,1.83C178.728,58.532,176.428,58.1,174.155,57.657Zm-4.2-2.636c-13.755-1.513-27.57-1.661-41.386-1.578-7.209.043-14.418.25-21.623.507A142.946,142.946,0,0,0,90.24,55.393c-2.047.315-4.066.826-6.081,1.314a15.967,15.967,0,0,0-2.128.843A1.723,1.723,0,0,1,83,56.121a19.08,19.08,0,0,1,5.158-1.478,143.041,143.041,0,0,1,17.344-1.722c11.785-.638,23.58-.726,35.375-.532,6.541.107,13.081.383,19.615.708a103.445,103.445,0,0,1,14.377,1.563,46.774,46.774,0,0,1,4.828,1.328,1.718,1.718,0,0,1,1.331,1.615C177.532,55.864,173.733,55.437,169.956,55.021ZM158.45,23.209a5.742,5.742,0,0,1,7.72-1.185,1.119,1.119,0,0,1,.383,1.442,5.421,5.421,0,0,1-8.354,2.566c-.111-.083-.224-.164-.336-.245a5.322,5.322,0,0,0,3.821,3.306,5.346,5.346,0,0,1-4.041-1.342c.335,1.8,2.747,3.47,4.931,3.476a5.381,5.381,0,0,0,3.032-.892,4.659,4.659,0,0,0,2.039-2.477,28.456,28.456,0,0,0,.609-3.058,4.93,4.93,0,0,1,.282,2.9,5.675,5.675,0,0,1-2.99,4.11,3.673,3.673,0,0,1-2.3.1c-.925-.066-1.85-.174-2.765-.326a2.539,2.539,0,0,1-1.14-.453A5.71,5.71,0,0,1,158.45,23.209Zm7.5,11.035-7.532-.833a.979.979,0,0,1,1.065-.63c1.824.177,3.646.381,5.467.592A1.148,1.148,0,0,1,165.947,34.244Zm-7.721.375.1-.228,7.436.822c.02.088.04.175.059.263a2.952,2.952,0,0,1-1.059.357q-2.8-.235-5.583-.611C158.839,35.176,158.542,34.828,158.226,34.619ZM132.5,31.652a3.357,3.357,0,0,1,2.881-.7C134.593,32.094,133.451,31.475,132.5,31.652Zm8.257-14.289a29.366,29.366,0,0,1-.87-2.868,8.945,8.945,0,0,1,2.206,4.7,16.463,16.463,0,0,1,.151,3.668,4.161,4.161,0,0,1-4.122,4c-.983.086-1.975.064-2.964.077a2.3,2.3,0,0,0-2.148.994,2.141,2.141,0,0,1,1.405-1.865c.958-.358,1.969-.574,2.95-.872a18.837,18.837,0,0,0,2.288-.765,3.238,3.238,0,0,0,1.907-2.879A9.361,9.361,0,0,0,140.76,17.363Zm-2.508.036c.295-.657.475-1.365.735-2.137a8.408,8.408,0,0,1,.487,3.83,2.21,2.21,0,0,1-1.168,1.74c-.88.448-1.769.88-2.67,1.285a6.861,6.861,0,0,0-3.546,3.027c.083-.324.159-.651.251-.972s.187-.66.312-.978a5.956,5.956,0,0,1,3.874-3.944A2.956,2.956,0,0,0,138.252,17.4Zm-6.2-11.158c.4.873.777,1.774,1.221,2.641.531,1.039,1.1,2.062,1.687,3.069a9.709,9.709,0,0,1,1.116,6.075.543.543,0,0,1-.276.394,6.424,6.424,0,0,0-3.548,3.207c-.016.03-.057.046-.2.157ZM128.087,11.7c1.034-1.813,1.925-3.708,2.879-5.567l.085-.02a15.559,15.559,0,0,1-.359,1.923q-.735,2.332-1.579,4.629a17.978,17.978,0,0,0-1.03,5.378c-.011.213-.023.427-.037.686a3.918,3.918,0,0,1-.826-.314.91.91,0,0,1-.417-.548A10.528,10.528,0,0,1,128.087,11.7Zm-4.063,3.046c.181.715.31,1.466.563,2.172a3.7,3.7,0,0,0,2.508,2.571,4.362,4.362,0,0,1,2.634,2.372A29.1,29.1,0,0,1,130.952,25a1.915,1.915,0,0,1,.009.611l-.142.055c-.873-2.147-2.708-3.174-4.628-4.125C123.376,20.15,122.574,17.566,124.024,14.743Zm3.634,12.217a26.192,26.192,0,0,1-3.021-.114A4.075,4.075,0,0,1,120.8,23.1a10.409,10.409,0,0,1,2.084-8.21c-.277,1.034-.568,2.065-.827,3.1a21.759,21.759,0,0,0-.586,2.651,3.552,3.552,0,0,0,2.548,4.033c1.067.359,2.191.545,3.27.872a9.06,9.06,0,0,1,1.821.778,1.838,1.838,0,0,1,.886,1.517A2.468,2.468,0,0,0,127.658,26.96Zm1.229,2.215q2.686-.073,5.376,0a3.512,3.512,0,0,1,1.129.465l-.072.217h-7.475l-.092-.224A3.552,3.552,0,0,1,128.887,29.175Zm-1.125,1.79c1.054-.371,1.714.488,2.559.648C129.454,31.537,128.445,32,127.762,30.965ZM96.023,24.56c-.023,4,1.621,6.471,5.681,6.643a5.089,5.089,0,0,0,4.829-3.4,5.465,5.465,0,0,1-4.212,1.3,6.075,6.075,0,0,0,3.334-2.054c.278-.376.509-.787.762-1.183a8.2,8.2,0,0,1-2.921,1.192,5.412,5.412,0,0,1-5.9-3.767,1.064,1.064,0,0,1,.448-1.261,5.676,5.676,0,0,1,8.667,6.237,8.664,8.664,0,0,1-1.251,2.253,2.579,2.579,0,0,1-2.111,1.1c-1.206.05-2.406.263-3.612.361a2.114,2.114,0,0,1-1.036-.17A5.636,5.636,0,0,1,96.023,24.56Zm2.819,8.825q2.762-.327,5.53-.607a1.056,1.056,0,0,1,1.077.628l-7.551.837A1.061,1.061,0,0,1,98.842,33.385Zm.319,2.467a1.1,1.1,0,0,1-1.154-.63l7.513-.836a.967.967,0,0,1-.9.854C102.8,35.465,100.982,35.662,99.161,35.852ZM85.739,46.459a16.758,16.758,0,0,0,6.92-.1,10.267,10.267,0,0,0,7.082-5.4c.536-.99.967-2.036,1.482-3.132.14,0,.378-.013.614,0a1.161,1.161,0,0,1,1.233,1.092,30.433,30.433,0,0,1-.088,9.411,4.3,4.3,0,0,1-1.15,2.388l20.287-.7c-.759-.119-1.574-.222-2.379-.378q-5.493-1.071-10.978-2.175a8.518,8.518,0,0,1-1.535-.541,3.593,3.593,0,0,1-.62-.422l.027-.178a3.675,3.675,0,0,1,.9-.157c2.213.159,4.425.347,6.636.528a1.347,1.347,0,0,0,.545-.022l-7.347-1.889.01-.087h5.914l.027-.139-6.062-1.585,0-.138h3.546l.032-.186a30.685,30.685,0,0,1-4.78-1.864c0-.063.008-.126.013-.189.19-.057.378-.126.572-.168s.389-.054.638-.087l-1.439-1.583.058-.058c.914.6,1.81,1.225,2.745,1.788a18.4,18.4,0,0,0,7.095,2.643,10.822,10.822,0,0,0,8.307-2.432,27.766,27.766,0,0,0,6.118-7.141c.445-.686.439-.689,1.378-.57V49.367l9.32.507A114.567,114.567,0,0,1,134.1,35.517c1.044,1.183,1.979,2.349,3.023,3.407a12.055,12.055,0,0,0,9.55,3.932,18.069,18.069,0,0,0,11.395-4.273,3.207,3.207,0,0,1,.286-.179c-2.083,5.2-4.864,9.566-10.408,11.485,7.463.333,14.929.519,22.336,1.506l.02.183c-.972.163-1.945.324-2.917.49a34.614,34.614,0,0,1-7.373-.017c-5.025-.217-10.049-.51-15.076-.578-8.222-.11-16.446-.158-24.667-.054q-9.115.116-18.223.713A31.352,31.352,0,0,1,90.68,50.966a26.933,26.933,0,0,1-9.634-5.2c-.185-.157-.366-.319-.543-.483-.041-.037-.062-.1-.04-.061C82.181,45.631,83.949,46.1,85.739,46.459ZM83.57,28.042a13.839,13.839,0,0,1,2.341,5.775,4.435,4.435,0,0,1-2.345,4.658,8.93,8.93,0,0,1-.919.457c-1.081.484-2.165.96-3.279,1.453a2.24,2.24,0,0,1,.77-1.779c.567-.569,1.209-1.065,1.819-1.59.459-.395.935-.77,1.376-1.183a4.035,4.035,0,0,0,1.151-4.364,12.769,12.769,0,0,0-2.3-4.085c-.655-.874-1.237-1.8-1.852-2.7A10.064,10.064,0,0,1,83.57,28.042Zm-5.252,2.917a3.746,3.746,0,0,0,1.036-2.438,9.684,9.684,0,0,0-.612-3.943c1.42,1.244,2.959,4.293,2.39,6.22a9.847,9.847,0,0,1-1.461,2.678,9.038,9.038,0,0,0-1.827,4.165,31.97,31.97,0,0,0-.021,3.248l-.071.025c-.219-.968-.477-1.928-.646-2.9a10.338,10.338,0,0,1,.082-5.092A5.37,5.37,0,0,1,78.318,30.959ZM69.8,20.123a15.062,15.062,0,0,0-1.736-2.242c-.632-.567-.643-1.306-.938-1.977.042.024.1.038.124.074a39.416,39.416,0,0,0,6.5,6.9A14.128,14.128,0,0,1,77.837,29.4a.847.847,0,0,1-.163.624,6.278,6.278,0,0,1-.731.742C75.485,26.548,72.374,23.519,69.8,20.123Zm6.264,23.6a1.017,1.017,0,0,1,.633-1.116Q78.581,41.79,80.472,41a.831.831,0,0,1,1.082.379Zm1.4,1.244a.863.863,0,0,1-1.157-.348l5.53-2.362a1.159,1.159,0,0,1-.717,1.15Q79.291,44.178,77.466,44.967Zm1.859.47.117-.049L84.4,54.449l-2.336.975Zm.147,22.755c.129-1.561,1.244-3.369,2.575-3.359-.144.175-.243.314-.36.435a5.01,5.01,0,0,0-.041,6.716,3.48,3.48,0,0,1,.386.759C80.316,72.359,79.287,70.417,79.472,68.192ZM180.84,79.115a5.836,5.836,0,0,1-1.993.967A71.017,71.017,0,0,1,171.8,81.5a209.886,209.886,0,0,1-25.149,1.39q-17.3.1-34.6-.089c-5.468-.068-10.936-.453-16.394-.824a50.708,50.708,0,0,1-10.752-1.662,10.471,10.471,0,0,1-2.539-1.092c-1.031-.635-1-1.59,0-2.293a9.943,9.943,0,0,1,4.357-1.546c3.471-.511,6.948-1.048,10.443-1.325,12.152-.961,24.335-.92,38.908-1,4.877.1,12.149.192,19.417.41a159.565,159.565,0,0,1,17.388,1.3,26.909,26.909,0,0,1,6.755,1.58,5.3,5.3,0,0,1,1.2.693A1.178,1.178,0,0,1,180.84,79.115Zm.141-23.678-2.235-.938c1.576-2.866,3.178-5.78,4.779-8.694l.082.033Zm5.225-10.475q-1.8-.78-3.614-1.547a1.091,1.091,0,0,1-.712-1.147l5.514,2.35A.886.886,0,0,1,186.206,44.962Zm1.456-1.229-5.5-2.341a.8.8,0,0,1,1.079-.385c1.243.522,2.48,1.059,3.722,1.583A1.132,1.132,0,0,1,187.662,43.733ZM186.685,30.8c-.3-.329-.561-.594-.783-.891a.555.555,0,0,1-.067-.438,13.7,13.7,0,0,1,3.708-6.213,53.138,53.138,0,0,0,7.186-7.45,10.067,10.067,0,0,1-.791,1.806c-.567.83-1.276,1.562-1.911,2.346-1.091,1.349-2.143,2.732-3.263,4.057A26.248,26.248,0,0,0,186.685,30.8Z" fill="#994a16"/><path d="M97.827,71.469H89.939l5.946-1.435-.026-.19-6.758.235-.023-.089L95.439,68.7l.005-.068H89.6a8.572,8.572,0,0,1,1.637-.442,3.225,3.225,0,0,1,1.76.038,2.806,2.806,0,0,0,3.43-1.645,3.006,3.006,0,0,0-1.12-3.727,2.943,2.943,0,0,0-4.294,1.393.62.62,0,0,1-.706.455c-1.027-.03-2.056-.01-3.084-.01l-.015-.089,3.146-.778c-2.19-.5-4.506-.6-5.945-2.868v12.9l13.415-2.335Zm-6.382-6.964c.422,1.988.964,2.654,2.19,2.776a2.166,2.166,0,0,0,2.285-1.262l-1.472.5,1.543-1.312-.1-.126a8.992,8.992,0,0,1-.921.371,2.329,2.329,0,0,1-2.707-1.291.652.652,0,0,1,.359-.979,2.47,2.47,0,0,1,2.973.582,2.41,2.41,0,0,1,.14,3.066,2.452,2.452,0,0,1-4.419-1.784C91.341,64.9,91.386,64.755,91.445,64.505Zm-4.488,1.647,3.77-1.138c.043.427.08.8.119,1.2H86.975Zm.374,1.228c1.141-.242,2.277-.522,3.429-.693.226-.033.515.36.775.557l-.1.175H87.345Z" fill="#994a16"/><path d="M165.025,71.533l13.354,2.322V60.91c-1.386,2.281-3.719,2.425-5.92,2.878.526.175,1.048.306,1.571.436l1.567.382c-.663.066-1.311.036-1.954.076a1.274,1.274,0,0,1-1.142-.463,2.889,2.889,0,0,0-3.229-.693,2.964,2.964,0,0,0-1.841,2.748,3.364,3.364,0,0,0,1,2.309l-.966.132,6.362,1.3-.018.067-6.842-.24-.019.2,5.933,1.427h-7.859Zm11-5.335c-.763,0-1.38,0-2,0-.68,0-.68.009-.7-.81Zm-3.213.784a7.237,7.237,0,0,1-.756,1.051,2.4,2.4,0,0,1-2.86.367,2.477,2.477,0,0,1-1.107-2.86,7.148,7.148,0,0,0,.178,1.028,2.372,2.372,0,0,0,4.088.82,5.213,5.213,0,0,1,.457-.406l.005-.008h0c-.08-.006-.163-.021-.244-.031a.616.616,0,0,0-.239.008,7.92,7.92,0,0,0-.8.3l1.222-1.482h0v-.008l-.557.32a2.32,2.32,0,0,1-3.215-.955.644.644,0,0,1,.326-1.024,2.422,2.422,0,0,1,3.446,1.659l.014-.008h0l-.012.015c.021.4.041.8.063,1.2h.007Zm.452.378c.118-.5.407-.484,2.414.107Z" fill="#994a16"/><path d="M110.1,63.411c.4,3.944-.839,7.037-5.152,8.389l14.065-.608a19.413,19.413,0,0,1-6.337-3.018c.733.149,1.443.383,2.17.507s1.478.137,2.219.2c-.878-.694-1.768-1.234-2.625-1.821a5.891,5.891,0,0,1-2.125-2.138l2.265.758.071-.152c-.049-.055-.1-.109-.147-.167-1.181-1.5-2.351-3.014-3.547-4.506a18.278,18.278,0,0,0-1.972-2.274,4.892,4.892,0,0,0-4.143-1.212A6.372,6.372,0,0,1,110.1,63.411Z" fill="#994a16"/><path d="M135.572,69.776a8,8,0,0,0,.642-10.091,5.571,5.571,0,0,0-8.775-.628,7.394,7.394,0,0,0-2.038,5.287,7.692,7.692,0,0,0,1.3,4.4A5.582,5.582,0,0,0,135.572,69.776ZM128.748,59.1a4.5,4.5,0,0,1,5.89.255,6.99,6.99,0,0,1,.189,9.849c-2.45,2.334-6.039,1.639-7.71-1.492a7.512,7.512,0,0,1-.833-3.53A6.429,6.429,0,0,1,128.748,59.1Z" fill="#994a16"/><path d="M161.148,70.586a5.911,5.911,0,0,0,2.269-3.348,7.625,7.625,0,0,0-1.639-7.679A4.042,4.042,0,0,0,156,59.241a6.994,6.994,0,0,0-2.379,5.5,7.752,7.752,0,0,0,1.557,4.861A4.218,4.218,0,0,0,161.148,70.586ZM155.9,60.415a3.522,3.522,0,0,1,5.92.446,7.228,7.228,0,0,1,1.155,4.127,6.727,6.727,0,0,1-1.5,4.2,3.448,3.448,0,0,1-5.47.123A7.2,7.2,0,0,1,155.9,60.415Z" fill="#994a16"/><path d="M107.7,69.671a6.116,6.116,0,0,0,1.4-2.643,7.789,7.789,0,0,0-1.325-7.209,4.2,4.2,0,0,0-6.633-.2,7.013,7.013,0,0,0-1.818,4.628,8.133,8.133,0,0,0,1.373,5A4.29,4.29,0,0,0,107.7,69.671ZM101.857,60a3.383,3.383,0,0,1,4.969-.063,6.718,6.718,0,0,1,1.835,4.88,7.19,7.19,0,0,1-1.117,3.744,3.565,3.565,0,0,1-6.183.219A7.155,7.155,0,0,1,101.857,60Z" fill="#994a16"/><path d="M145.742,67.636a2.971,2.971,0,1,0-2.914-2.993A2.953,2.953,0,0,0,145.742,67.636Zm-2.264-3.778c.144,1.684.885,2.568,2.189,2.757a2.212,2.212,0,0,0,2.306-1.314l-1.249.442-.031-.085,1.232-1.062-.109-.147c-.235.089-.468.188-.707.265a2.221,2.221,0,0,1-2.612-.988c-.462-.775-.307-1.155.577-1.419a2.449,2.449,0,0,1,1.552,4.645,2.329,2.329,0,0,1-2.565-.57A2.445,2.445,0,0,1,143.478,63.858Z" fill="#994a16"/><path d="M119.583,67.286a2.929,2.929,0,1,0-2.913-2.923A2.9,2.9,0,0,0,119.583,67.286Zm-1.2-5.064a2.47,2.47,0,0,1,3.658,1.891c.02.389-.014.731-.464.885-.371.127-.729.3-1.141.466l1.394-1.273-.1-.091a7.816,7.816,0,0,1-1.285.386,2.257,2.257,0,0,1-2.338-1.446A.6.6,0,0,1,118.382,62.222Zm-1.074,1.464a2.436,2.436,0,0,0,4.569,1.346,2.382,2.382,0,1,1-4.569-1.346Z" fill="#994a16"/><path d="M176.818,77.632a5.127,5.127,0,0,0-1.283-.332c-3.4-.3-6.793-.691-10.2-.815-7.569-.275-15.142-.493-22.716-.585-14.868-.181-29.737-.092-44.6.568-3.286.146-6.566.452-9.845.729a9.374,9.374,0,0,0-2.05.491,1.019,1.019,0,0,0-.716,1.026,1.082,1.082,0,0,0,.69,1.048,3.02,3.02,0,0,0,.74.255c1.438.2,2.874.473,4.319.556,4.86.28,9.72.586,14.584.705,8.6.211,17.209.292,25.814.427v-.1c1.334,0,2.667.021,4,0,9.028-.162,18.057-.279,27.083-.524,3.913-.107,7.82-.461,11.726-.75a12.712,12.712,0,0,0,2.478-.515,1.063,1.063,0,0,0,.8-1.1A1.136,1.136,0,0,0,176.818,77.632Z" fill="#994a16"/><path d="M167.357,75.5l0-.151c-4.09-.237-8.178-.555-12.272-.695-8.054-.276-16.111-.555-24.17-.646a275.471,275.471,0,0,0-27.969,1.012l-3.94.355C121.8,74.465,144.577,75.2,167.357,75.5Z" fill="#994a16"/><polygon points="172.807 66.982 172.817 66.973 172.812 66.974 172.807 66.982" fill="#994a16"/><polygon points="172.81 66.973 172.817 66.973 172.81 66.972 172.81 66.973" fill="#994a16"/><path d="M134.578,68.313a5.887,5.887,0,0,0,.3-7.554,4.189,4.189,0,0,0-6.8.138,6.845,6.845,0,0,0-1.258,3.488,17.388,17.388,0,0,0,.722,2.528A4.248,4.248,0,0,0,134.578,68.313ZM130.1,61.472c.222-1.379.457-1.728,2.1-1.42,1.868.35,2.933,2.292,3.007,4a.8.8,0,0,1-.231.468,2.567,2.567,0,0,1-3.807.209,3.83,3.83,0,0,1-1.126-2.81C130.06,61.832,130.076,61.651,130.1,61.472ZM128.19,62.7c-.239,2.236.267,4.05,2.2,5.111a3.19,3.19,0,0,0,3.938-.728,3.226,3.226,0,0,1-5.075.672A4.823,4.823,0,0,1,128.19,62.7Z" fill="#994a16"/><path d="M160.981,68.679a5.755,5.755,0,0,0-.139-7.874,3.135,3.135,0,0,0-4.506.189,5.478,5.478,0,0,0-1.452,3.739,5.734,5.734,0,0,0,1.131,3.513A3.207,3.207,0,0,0,160.981,68.679Zm-4.1-7.112a2.368,2.368,0,0,1,3.626-.019,2.815,2.815,0,0,1-.322,3.4,3.608,3.608,0,0,1-2.548.93c-.379.027-.763.005-1.2.005.559,1.054,1.433,1.394,2.933,1.29a6.238,6.238,0,0,1-1.041.394,2.139,2.139,0,0,1-2.519-1.7A4.82,4.82,0,0,1,156.885,61.567Z" fill="#994a16"/><path d="M106.646,68.558a5.748,5.748,0,0,0-.14-7.914,3.136,3.136,0,0,0-4.334.078,5.394,5.394,0,0,0-1.6,3.923,5.754,5.754,0,0,0,1.2,3.548A3.174,3.174,0,0,0,106.646,68.558ZM105,60.68a3.04,3.04,0,0,1,1.869,1.7,5.22,5.22,0,0,1,.35,3.658,2.221,2.221,0,0,1-2.686,1.156,5.375,5.375,0,0,1-.654-.3,2.891,2.891,0,0,0,2.843-1.343c-.628,0-1.18.039-1.724-.007a2.864,2.864,0,0,1-2.738-2.789A2.092,2.092,0,0,1,105,60.68Z" fill="#994a16"/><circle cx="249.409" cy="80.346" r="1.212" fill="#994a16"/><circle cx="241.978" cy="80.346" r="1.36" fill="#994a16"/><circle cx="234.547" cy="80.346" r="1.508" fill="#994a16"/><circle cx="227.116" cy="80.346" r="1.656" fill="#994a16"/><circle cx="219.684" cy="80.346" r="1.804" fill="#994a16"/><circle cx="212.253" cy="80.346" r="1.952" fill="#994a16"/><circle cx="204.822" cy="80.346" r="2.1" fill="#994a16"/><circle cx="197.391" cy="80.346" r="2.248" fill="#994a16"/><circle cx="15.853" cy="79.134" r="1.212" fill="#994a16"/><circle cx="23.284" cy="79.134" r="1.36" fill="#994a16"/><circle cx="30.716" cy="79.134" r="1.508" fill="#994a16"/><circle cx="38.147" cy="79.134" r="1.656" fill="#994a16"/><circle cx="45.578" cy="79.134" r="1.804" fill="#994a16"/><circle cx="53.009" cy="79.134" r="1.952" fill="#994a16"/><circle cx="60.441" cy="79.134" r="2.1" fill="#994a16"/><circle cx="67.872" cy="79.134" r="2.248" fill="#994a16"/></svg>