<svg id="Capa_1" data-name="Capa 1" xmlns="http://www.w3.org/2000/svg" viewBox="0 0 415.801 170.526"><path d="M69.459,101.842l6.191,2.477L63.765,139.394,51.3,107.619a11.674,11.674,0,0,0-4.044-5.075,11.973,11.973,0,0,0-7.1-1.939h-9.9v1.237l4.539.826L40.9,118.1l-7.262,21.293L21.18,107.619a10.735,10.735,0,0,0-3.962-5.034,12.168,12.168,0,0,0-7.18-1.98H.135v1.237l4.539.826L26.957,159.2h2.476l12.792-37.715L57.08,159.2h2.476l18.569-54.881,6.6-2.477v-1.237H69.459Z" fill="#e4dbca"/><path d="M131.355,129.49a11.834,11.834,0,0,0-2.063-6.6,15.194,15.194,0,0,0-5.736-5.076,17.5,17.5,0,0,0-8.294-1.94,13,13,0,0,0-10.729,5.365v-13.2q0-7.43-7.427-7.428H86.376v1.237l4.952,1.238V155.9l-4.952,1.237v1.238h23.109v-1.238l-4.952-1.237V125.364a13.464,13.464,0,0,1,1.816-3.3q2.475-3.3,5.612-3.3,2.475,0,4.332,2.765t1.858,7.964v21.458q0,7.428,7.427,7.427h10.729v-1.238l-4.952-1.237Z" fill="#e4dbca"/><path d="M147.861,102.255a5.984,5.984,0,1,0,4.126-1.65A5.6,5.6,0,0,0,147.861,102.255Z" fill="#e4dbca"/><path d="M159.415,124.538q0-7.428-7.428-7.427H141.258v1.238l4.952,1.237V155.9l-4.952,1.237v1.238h23.108v-1.238l-4.951-1.237Z" fill="#e4dbca"/><path d="M201.381,137.7a78.938,78.938,0,0,0-6.974-3.919,48.8,48.8,0,0,1-8.005-4.829,6.444,6.444,0,0,1-2.641-5.24,5.758,5.758,0,0,1,1.567-4.127,5.05,5.05,0,0,1,3.8-1.65q5.694,0,9.821,6.437A29.664,29.664,0,0,1,202,130.728h3.3V116.7h-2.064a16.447,16.447,0,0,0-1.65.908,12.8,12.8,0,0,0-2.889,2.805,21.015,21.015,0,0,0-3.135-2.227,15.032,15.032,0,0,0-8.088-2.312q-8.833,0-13.081,3.095a9.525,9.525,0,0,0-4.25,8.047,10.474,10.474,0,0,0,1.939,6.313,17.218,17.218,0,0,0,4.7,4.457,79.339,79.339,0,0,0,7.221,4,57.034,57.034,0,0,1,7.634,4.581,5.576,5.576,0,0,1,2.434,4.581,6.469,6.469,0,0,1-1.773,4.91,7.322,7.322,0,0,1-5.241,1.692q-6.521,0-10.894-6.354a23.294,23.294,0,0,1-3.137-6.438h-3.3v14.03h2.063a11.862,11.862,0,0,0,1.651-.908,10.693,10.693,0,0,0,2.888-2.806,13.831,13.831,0,0,0,3.219,2.311,18.659,18.659,0,0,0,9.16,2.229q18.981,0,18.983-11.967a9.368,9.368,0,0,0-1.858-5.778A17.4,17.4,0,0,0,201.381,137.7Z" fill="#e4dbca"/><path d="M241.944,122.063l14.442-17.744,6.6-2.477v-1.237h-15.68v1.237l6.189,2.477-20.219,24.675V103.08l4.952-1.238v-1.237H214.709v1.237l4.951,1.238V155.9l-4.951,1.237v1.238H238.23v-1.238l-4.952-1.237V132.378l12.379,18.983a19.925,19.925,0,0,0,4.829,5.158,10.577,10.577,0,0,0,6.313,1.856h11.554v-1.238l-4.126-1.237Z" fill="#e4dbca"/><polygon points="271.653 101.842 276.605 103.08 276.605 155.9 271.653 157.137 271.653 158.375 295.174 158.375 295.174 157.137 290.222 155.9 290.222 103.08 295.174 101.842 295.174 100.605 271.653 100.605 271.653 101.842" fill="#e4dbca"/><path d="M341.8,101.842l6.6,2.477V137.33L322,106.382a20.678,20.678,0,0,0-4.7-4.209,12.752,12.752,0,0,0-6.849-1.568h-8.666v1.237l5.777,1.651v51.168l-6.6,2.476v1.238h15.681v-1.238l-6.6-2.476V114.635l38.377,44.979h2.476V104.319l6.6-2.477v-1.237H341.8Z" fill="#e4dbca"/><path d="M392.146,128.664V129.9l4.951,1.238v18.981a21.042,21.042,0,0,1-1.9,3.3q-2.475,3.3-5.529,3.3-5.281,0-8.624-6.19T377.7,129.49q0-14.856,3.755-21.457t9.45-6.6a11.393,11.393,0,0,1,6.726,2.063,18.106,18.106,0,0,1,4.911,5.2,24.315,24.315,0,0,1,3.219,7.179h3.3v-15.68H407q-.165.083-1.65,1.155a15.236,15.236,0,0,0-2.889,3.384,20.708,20.708,0,0,0-13.122-5.365,26.216,26.216,0,0,0-13.658,3.508,23.346,23.346,0,0,0-9.161,10.317,37.434,37.434,0,0,0-3.26,16.3,38.495,38.495,0,0,0,3.136,16.217,24.349,24.349,0,0,0,8.418,10.358,20.3,20.3,0,0,0,11.554,3.549,12.549,12.549,0,0,0,9.243-3.714,18.505,18.505,0,0,0,2.724-3.714,8.518,8.518,0,0,0,1.981,3.3q3.135,3.3,9.161,3.3h1.237V131.141l4.952-1.238v-1.239Z" fill="#e4dbca"/><path d="M185.407,85.205c6.217.239,12.44.429,18.662.476,14.365.109,28.733.2,43.061-1.135a44.014,44.014,0,0,0,7.862-1.33,7.044,7.044,0,0,0,2.99-1.44,1.838,1.838,0,0,0,.156-2.851,1.991,1.991,0,0,1-.666-1.852,6.107,6.107,0,0,1,.018-.836,1.078,1.078,0,0,1,.328-.622,5.144,5.144,0,0,0,.286-7.675,1.622,1.622,0,0,1-.636-1.449,5.28,5.28,0,0,1,.492-2.523,4.236,4.236,0,0,0,.231-3.417,1.191,1.191,0,0,1,.034-.648q.755-2.832,1.533-5.657c.376-1.376.76-2.749,1.132-4.092a9.1,9.1,0,0,0,1.909.452,1.577,1.577,0,0,0,1.443-1.144c.472-1.141.1-2.047-1.189-2.885.056-.147.11-.3.173-.453q4.668-11.117,9.33-22.235a6.412,6.412,0,0,0,.371-1.338.872.872,0,0,0-.59-1.025.956.956,0,0,0-1.186.37c-.15.212-.271.446-.423.657a36.384,36.384,0,0,1-5.675,5.992,12.088,12.088,0,0,0-2.543,3.02c-.33.569-.629,1.156-.942,1.735a5.956,5.956,0,0,1,1.442-3.667.985.985,0,0,0-1.211-1.544c-.294.159-.57.353-.856.526a15.9,15.9,0,0,0-7.188,9.137c-1.063,3.417.1,5.92,3.378,7.35.3.131.6.257.943.4a2.422,2.422,0,0,0-.712,1.8,2.231,2.231,0,0,0,.984,1.713,22.047,22.047,0,0,1-8.167,1.381,7.593,7.593,0,0,1-4.45-1.6c-2.1-1.67-3.236-3.977-4.3-6.477,1.243.232,2.316.107,2.969-1a2.309,2.309,0,0,0-.488-2.985,6.326,6.326,0,0,0,1.905-9.131,6.253,6.253,0,0,0-8.6-1.478,6.022,6.022,0,0,0-2.613,4.011,6.235,6.235,0,0,0,1.9,5.779c-1.834,1.338-1.661,3.109.453,4.394-.622.559-1.205,1.126-1.832,1.641a15.69,15.69,0,0,1-8.649,3.246,9.745,9.745,0,0,1-7.651-2.251,30.509,30.509,0,0,1-3.143-3.236c-.711-.817-1.28-1.757-1.992-2.755,1.487.048,2.524-.443,2.821-1.829a2.324,2.324,0,0,0-1.439-2.687,6.884,6.884,0,0,1,.772-.041c.781-.029,1.567-.015,2.341-.106a4.72,4.72,0,0,0,4.3-3.854,10.422,10.422,0,0,0,.042-3.94,12.951,12.951,0,0,0-3.46-6.635c-.445-.52-.861-.631-1.307-.371s-.518.653-.283,1.321a4.349,4.349,0,0,1-.437,3.619,10.971,10.971,0,0,0-1.409-5.411,23.3,23.3,0,0,1-3.055-7.031.89.89,0,0,0-1.735.021,21.705,21.705,0,0,1-2.507,6.062,11.945,11.945,0,0,0-1.688,3.922c-.108.725-.164,1.457-.262,2.346a4.492,4.492,0,0,1-.252-3.668.9.9,0,0,0-1.494-.992c-.26.265-.483.566-.725.849A11.891,11.891,0,0,0,200.9,29.09a4.879,4.879,0,0,0,4.621,4.809c1.006.1,2.029.015,3.045.015-1.266.986-1.7,1.785-1.433,2.843a2.332,2.332,0,0,0,2.6,1.81.628.628,0,0,1-.036.189,24.184,24.184,0,0,1-5.293,6.227,9.366,9.366,0,0,1-9.142,1.681,20.549,20.549,0,0,1-5.7-2.9c-.808-.576-1.579-1.2-2.421-1.851a2.372,2.372,0,0,0,.867-4.278,6.363,6.363,0,0,0-.036-9.46,6.291,6.291,0,0,0-8.528.265,6.036,6.036,0,0,0-1.858,4.357,6.256,6.256,0,0,0,2.949,5.44,2.291,2.291,0,0,0-.8,2.747c.609,1.483,1.861,1.586,3.261,1.324-.044.181-.059.289-.1.391-.188.524-.358,1.058-.577,1.57a9.152,9.152,0,0,1-6.409,5.8,15.474,15.474,0,0,1-6.762,0c-1.192-.243-2.367-.57-3.55-.859a2.288,2.288,0,0,0,1.2-1.757,2.407,2.407,0,0,0-.69-1.951c.432-.184.826-.341,1.211-.517,2.805-1.284,3.989-3.5,3.273-6.493a15.845,15.845,0,0,0-8.3-10.416,1.3,1.3,0,0,0-1.073.119c-.507.3-.47.96,0,1.5a6.548,6.548,0,0,1,1.446,3.587c-.075-.046-.117-.056-.133-.083-.056-.1-.105-.2-.153-.3A13.7,13.7,0,0,0,159,28.438a31.1,31.1,0,0,1-5.977-6.534.931.931,0,0,0-1.179-.379.864.864,0,0,0-.6,1.014,5.606,5.606,0,0,0,.33,1.234q4.385,10.478,8.789,20.945c.263.627.518,1.257.772,1.875-1.239.709-1.678,1.652-1.227,2.75a2.645,2.645,0,0,0,.841,1.065c.623.458,1.308.2,1.968-.12.915,3.335,1.812,6.6,2.7,9.862a.679.679,0,0,1-.013.379,6.028,6.028,0,0,0,.467,4.54,5.9,5.9,0,0,1,.209,1.954c0,.074-.192.192-.315.234a3.607,3.607,0,0,0-2.116,1.879,5.369,5.369,0,0,0-.064,4.9,3.238,3.238,0,0,0,1.856,1.841.894.894,0,0,1,.679,1.014c0,.224-.018.449,0,.671a1.2,1.2,0,0,1-.477,1.146,1.933,1.933,0,0,0,.027,3.135,2.75,2.75,0,0,0,.879.582,38.885,38.885,0,0,0,4.418,1.33A92.413,92.413,0,0,0,185.407,85.205Zm72.142-16.727c1.823,1.351,1.816,4.984,0,6.335Zm-.15-9.122-2.061-.865c1.453-2.644,2.931-5.331,4.408-8.019l.075.03Q258.612,54.923,257.4,59.356Zm-.842,17.711v.639c-.959-.266-1.876-.558-2.811-.771a66.037,66.037,0,0,0-10.01-1.333c-13.243-.956-26.508-.94-39.773-.843-4.862.035-9.724.151-14.583.311-5.082.168-10.161.447-15.207,1.107a29.362,29.362,0,0,0-6.911,1.514,1.061,1.061,0,0,1-.231.021V70.848c0-1.77.033-3.541-.014-5.31a1.848,1.848,0,0,1,1.034-1.765,12.746,12.746,0,0,1,4.118-1.339,87.342,87.342,0,0,1,11.525-1.368c9.3-.572,18.612-.739,27.927-.687,6.687.037,13.375.121,20.06.289,3.61.091,7.215.392,10.821.617a54.191,54.191,0,0,1,10.268,1.458,16.872,16.872,0,0,1,2.6.98,1.9,1.9,0,0,1,1.2,1.941C256.533,69.464,256.557,73.265,256.557,77.067ZM251.1,61.4a90.283,90.283,0,0,0-12.263-1.343c-13.347-.757-26.706-.731-40.065-.5-5.344.092-10.687.349-16.024.641a68.553,68.553,0,0,0-11.35,1.428,14.023,14.023,0,0,0-2.407.7c-.894.379-1.724.908-2.616,1.392A1.136,1.136,0,0,1,167.01,62a29.261,29.261,0,0,1,4.359-1.326A90.478,90.478,0,0,1,182.9,59.293c11.494-.819,23.007-.984,34.521-.831,6.891.092,13.782.35,20.667.666a94.616,94.616,0,0,1,14.644,1.643c1.07.219,2.113.578,3.162.894a3.429,3.429,0,0,1,.751.365c.785.47.87.9.352,1.689C255.321,62.211,253.2,61.813,251.1,61.4Zm-3.873-2.432c-12.687-1.4-25.428-1.531-38.171-1.455-6.649.039-13.3.231-19.943.467a131.876,131.876,0,0,0-15.409,1.331c-1.888.291-3.75.762-5.609,1.212a14.761,14.761,0,0,0-1.962.778,1.587,1.587,0,0,1,.9-1.318,17.56,17.56,0,0,1,4.757-1.363,131.792,131.792,0,0,1,16-1.589c10.869-.588,21.748-.669,32.627-.49,6.032.1,12.064.353,18.091.653a95.245,95.245,0,0,1,13.26,1.442,42.991,42.991,0,0,1,4.453,1.224,1.583,1.583,0,0,1,1.227,1.489C254.218,59.75,250.714,59.356,247.231,58.972Zm16.33-10.411L258.489,46.4a.734.734,0,0,1,1-.355c1.146.481,2.287.976,3.432,1.46A1.043,1.043,0,0,1,263.561,48.561Zm-1.685-13.154a12.631,12.631,0,0,1,3.42-5.73,48.9,48.9,0,0,0,6.628-6.872,9.308,9.308,0,0,1-.73,1.667c-.523.765-1.177,1.44-1.762,2.163-1.007,1.245-1.977,2.52-3.01,3.742a24.229,24.229,0,0,0-3.762,6.256c-.272-.3-.517-.548-.722-.822A.514.514,0,0,1,261.876,35.407Zm-.971-4.446c-.134,1.044-.329,2.137-.4,3.238a3.249,3.249,0,0,0,1.036,2.657A4.867,4.867,0,0,1,262.79,40.9c-.124,1.623-.5,3.226-.769,4.837a.455.455,0,0,1-.148.22,8.321,8.321,0,0,0-1.814-7.017c-1.834-2.234-1.648-4.206.087-6.959C260.388,31.591,260.691,31.244,260.9,30.961Zm-4.712,12.445a3.785,3.785,0,0,1-1.7-4.229A14.315,14.315,0,0,1,259.44,30.9l.15.095c-.561.832-1.086,1.694-1.693,2.491a10.372,10.372,0,0,0-2.246,4.308,3.516,3.516,0,0,0,1.064,3.359c.694.669,1.474,1.25,2.214,1.872A3.831,3.831,0,0,1,260.5,45.19c.016.087.018.176.037.363C259.032,44.823,257.543,44.227,256.193,43.406Zm2.035,3.8,5.086,2.167a.817.817,0,0,1-1.1.318q-1.663-.72-3.334-1.427A1.007,1.007,0,0,1,258.228,47.21ZM245.308,49.6a9.656,9.656,0,0,0,6.72,1.687,26.909,26.909,0,0,0,6.7-1.407c.119-.039.243-.062.511-.13a23.557,23.557,0,0,1-4.136,3.068,24.98,24.98,0,0,1-6.42,2.665,1.917,1.917,0,0,1-.969-.01c-2.75-.8-5.491-1.621-8.235-2.439a.636.636,0,0,1-.382-.262l5.75,1.018.04-.113L240.2,51.55l.018-.071,5.267.662.019-.087-5.751-1.8.054-.286,3.941.279.038-.081-3.369-1.709.026-.07,3.132.376c-.657-.854-1.3-1.615-1.855-2.435a3.318,3.318,0,0,1-.769-2.734c.077.158.155.315.231.474A14.236,14.236,0,0,0,245.308,49.6Zm-8.69-19.97a5.3,5.3,0,0,1,7.12-1.092,1.032,1.032,0,0,1,.354,1.329,5,5,0,0,1-7.705,2.367l-.31-.226a4.91,4.91,0,0,0,3.524,3.049,4.927,4.927,0,0,1-3.726-1.237c.308,1.656,2.533,3.2,4.547,3.206a4.959,4.959,0,0,0,2.8-.823,4.3,4.3,0,0,0,1.882-2.285,26.228,26.228,0,0,0,.561-2.82,4.549,4.549,0,0,1,.26,2.674,5.238,5.238,0,0,1-2.758,3.791,3.39,3.39,0,0,1-2.125.088c-.853-.061-1.706-.16-2.55-.3a2.352,2.352,0,0,1-1.051-.418A5.268,5.268,0,0,1,236.618,29.631Zm6.915,10.179-6.947-.769a.9.9,0,0,1,.982-.581c1.683.164,3.363.351,5.043.546A1.057,1.057,0,0,1,243.533,39.81Zm-7.121.345.09-.21,6.858.758c.018.081.036.162.055.243a2.73,2.73,0,0,1-.977.329q-2.581-.217-5.15-.564C236.977,40.669,236.7,40.348,236.412,40.155Zm-23.725-2.736a3.1,3.1,0,0,1,2.657-.643C214.615,37.826,213.562,37.255,212.687,37.419ZM220.3,24.24a26.706,26.706,0,0,1-.8-2.645,8.242,8.242,0,0,1,2.034,4.331,15.107,15.107,0,0,1,.139,3.383,3.836,3.836,0,0,1-3.8,3.685c-.906.08-1.821.059-2.733.071a2.12,2.12,0,0,0-1.981.918,1.974,1.974,0,0,1,1.3-1.721c.884-.33,1.815-.529,2.721-.8a17.353,17.353,0,0,0,2.11-.706,2.986,2.986,0,0,0,1.759-2.655A8.647,8.647,0,0,0,220.3,24.24Zm-2.313.033c.272-.606.438-1.259.678-1.97a7.744,7.744,0,0,1,.449,3.532,2.041,2.041,0,0,1-1.078,1.605c-.811.413-1.631.811-2.462,1.185a6.321,6.321,0,0,0-3.271,2.792c.077-.3.147-.6.232-.9s.172-.609.288-.9A5.492,5.492,0,0,1,216.4,25.98,2.727,2.727,0,0,0,217.99,24.273Zm-5.723-10.291c.37.805.718,1.636,1.127,2.436.49.958,1.012,1.9,1.556,2.831a8.952,8.952,0,0,1,1.029,5.6.5.5,0,0,1-.254.364,5.925,5.925,0,0,0-3.273,2.957c-.015.028-.053.043-.185.145Zm-3.652,5.032c.953-1.672,1.775-3.42,2.654-5.134l.079-.019a14.336,14.336,0,0,1-.331,1.774q-.676,2.151-1.457,4.269a16.627,16.627,0,0,0-.95,4.96c-.01.2-.021.394-.033.633a3.714,3.714,0,0,1-.762-.289.839.839,0,0,1-.384-.506A9.71,9.71,0,0,1,208.615,19.014Zm-3.748,2.809c.167.66.286,1.352.519,2A3.42,3.42,0,0,0,207.7,26.2a4.019,4.019,0,0,1,2.43,2.188,26.837,26.837,0,0,1,1.128,2.9,1.769,1.769,0,0,1,.008.564l-.13.051c-.806-1.98-2.5-2.928-4.269-3.8C204.27,26.81,203.53,24.427,204.867,21.823Zm3.352,11.269a24.167,24.167,0,0,1-2.787-.106,3.758,3.758,0,0,1-3.542-3.453,9.6,9.6,0,0,1,1.922-7.573c-.256.954-.524,1.9-.763,2.862a20.373,20.373,0,0,0-.541,2.444,3.279,3.279,0,0,0,2.351,3.721c.984.331,2.02.5,3.015.8a8.4,8.4,0,0,1,1.681.717,1.7,1.7,0,0,1,.816,1.4A2.269,2.269,0,0,0,208.219,33.092Zm1.133,2.042q2.478-.068,4.959,0a3.267,3.267,0,0,1,1.041.428l-.067.2h-6.894l-.085-.207A3.312,3.312,0,0,1,209.352,35.134Zm-1.037,1.651c.972-.342,1.581.451,2.36.6C209.875,37.313,208.945,37.742,208.315,36.785Zm-29.273-5.907c-.022,3.693,1.494,5.968,5.239,6.126a4.691,4.691,0,0,0,4.454-3.139,5.041,5.041,0,0,1-3.884,1.2,5.6,5.6,0,0,0,3.074-1.9c.257-.347.47-.726.7-1.09a7.572,7.572,0,0,1-2.694,1.1,4.992,4.992,0,0,1-5.444-3.474.981.981,0,0,1,.413-1.164A5.235,5.235,0,0,1,188.9,34.3a7.99,7.99,0,0,1-1.155,2.079,2.377,2.377,0,0,1-1.946,1.016c-1.113.046-2.219.242-3.332.333a1.949,1.949,0,0,1-.956-.157A5.2,5.2,0,0,1,179.042,30.878Zm2.6,8.139q2.549-.3,5.1-.56a.976.976,0,0,1,.994.579l-6.964.772A.978.978,0,0,1,181.641,39.017Zm.3,2.275a1.013,1.013,0,0,1-1.065-.581l6.93-.77a.891.891,0,0,1-.832.787C185.294,40.935,183.615,41.117,181.936,41.292Zm-12.379,9.784a15.453,15.453,0,0,0,6.381-.094A9.468,9.468,0,0,0,182.471,46c.494-.913.892-1.878,1.366-2.888.129,0,.349-.013.567,0a1.071,1.071,0,0,1,1.137,1.008,28.069,28.069,0,0,1-.081,8.679A3.968,3.968,0,0,1,184.4,55l18.711-.642c-.7-.11-1.452-.2-2.194-.349q-5.066-.987-10.125-2.006a7.87,7.87,0,0,1-1.416-.5,3.3,3.3,0,0,1-.572-.389l.025-.164a3.389,3.389,0,0,1,.831-.145c2.041.147,4.08.32,6.12.486a1.229,1.229,0,0,0,.5-.019l-6.777-1.743.01-.08h5.454l.025-.128L189.4,47.862l0-.127h3.27l.03-.171a28.579,28.579,0,0,1-4.41-1.719l.013-.176c.175-.052.349-.116.528-.154s.358-.05.588-.08l-1.328-1.46.054-.054c.843.552,1.67,1.13,2.532,1.649a16.97,16.97,0,0,0,6.543,2.438,9.984,9.984,0,0,0,7.662-2.243,25.607,25.607,0,0,0,5.643-6.586c.41-.633.405-.636,1.271-.526v15.1l8.6.468a105.72,105.72,0,0,1-6.237-13.241c.963,1.091,1.825,2.166,2.788,3.142a11.119,11.119,0,0,0,8.808,3.626,16.658,16.658,0,0,0,10.51-3.941c.04-.035.092-.058.264-.165-1.921,4.8-4.487,8.823-9.6,10.593,6.884.307,13.769.479,20.6,1.389l.019.169q-1.345.225-2.691.452a31.871,31.871,0,0,1-6.8-.016c-4.634-.2-9.268-.471-13.9-.533-7.583-.1-15.168-.146-22.75-.05q-8.407.106-16.808.658a28.912,28.912,0,0,1-10.483-1.076,24.815,24.815,0,0,1-8.886-4.794c-.17-.145-.337-.294-.5-.445-.038-.035-.056-.089-.037-.056C166.275,50.312,167.906,50.745,169.557,51.076Zm-2-16.987a12.765,12.765,0,0,1,2.159,5.327,4.089,4.089,0,0,1-2.163,4.3,8.472,8.472,0,0,1-.848.422c-1,.446-2,.885-3.024,1.339a2.069,2.069,0,0,1,.71-1.64c.524-.525,1.115-.982,1.679-1.467.422-.364.862-.71,1.269-1.091A3.723,3.723,0,0,0,168.4,37.25a11.776,11.776,0,0,0-2.12-3.768c-.6-.8-1.141-1.661-1.708-2.494A9.282,9.282,0,0,1,167.556,34.089Zm-4.844,2.69a3.451,3.451,0,0,0,.956-2.248,8.954,8.954,0,0,0-.565-3.637c1.31,1.148,2.729,3.96,2.2,5.737a9.092,9.092,0,0,1-1.347,2.47,8.327,8.327,0,0,0-1.685,3.841,29.336,29.336,0,0,0-.019,3l-.066.023c-.2-.892-.44-1.778-.6-2.678a9.537,9.537,0,0,1,.076-4.7A4.957,4.957,0,0,1,162.712,36.779Zm-7.854-9.993a13.85,13.85,0,0,0-1.6-2.068c-.584-.523-.593-1.2-.866-1.824.039.023.091.035.115.069a36.319,36.319,0,0,0,5.993,6.363,13.038,13.038,0,0,1,3.768,6.015.776.776,0,0,1-.15.575,5.715,5.715,0,0,1-.675.685C160.1,32.711,157.23,29.918,154.858,26.786Zm5.778,21.766a.937.937,0,0,1,.584-1.029q1.734-.755,3.479-1.483a.768.768,0,0,1,1,.35Zm1.29,1.147a.8.8,0,0,1-1.067-.321l5.1-2.178a1.071,1.071,0,0,1-.661,1.061Q163.609,48.972,161.926,49.7Zm1.715.434.107-.046,4.57,8.358-2.155.9Zm.135,20.987c.119-1.44,1.148-3.107,2.375-3.1-.132.161-.224.289-.332.4a4.622,4.622,0,0,0-.038,6.194,3.2,3.2,0,0,1,.356.7C164.555,74.964,163.606,73.172,163.776,71.12ZM166.449,81.3c-.952-.586-.922-1.466,0-2.115a9.16,9.16,0,0,1,4.019-1.425c3.2-.472,6.408-.968,9.632-1.223,11.207-.886,22.444-.849,35.885-.919,4.5.09,11.2.176,17.908.377a147.094,147.094,0,0,1,16.037,1.2,24.745,24.745,0,0,1,6.23,1.457,4.9,4.9,0,0,1,1.107.64,1.086,1.086,0,0,1,0,1.909,5.388,5.388,0,0,1-1.838.891,65.616,65.616,0,0,1-6.5,1.31,193.526,193.526,0,0,1-23.195,1.282q-15.955.093-31.911-.082c-5.043-.063-10.086-.418-15.121-.76A46.775,46.775,0,0,1,168.79,82.3,9.627,9.627,0,0,1,166.449,81.3Z" fill="#e4dbca"/><path d="M178.915,72.819l-.025-.175-6.232.216-.022-.082L178.5,71.59l0-.063H173.12a7.947,7.947,0,0,1,1.51-.408,2.973,2.973,0,0,1,1.624.036,2.589,2.589,0,0,0,3.163-1.518,2.773,2.773,0,0,0-1.033-3.438,2.715,2.715,0,0,0-3.961,1.285.571.571,0,0,1-.651.42c-.947-.028-1.9-.009-2.844-.009l-.013-.082,2.9-.718c-2.02-.457-4.156-.551-5.483-2.645v11.9l12.372-2.153v-.052H173.43Zm-4.211-4.6c.019-.135.061-.268.115-.5.389,1.833.889,2.447,2.02,2.56a2,2,0,0,0,2.108-1.164l-1.358.461,1.423-1.21-.088-.116a8.474,8.474,0,0,1-.85.342,2.149,2.149,0,0,1-2.5-1.191.6.6,0,0,1,.332-.9,2.279,2.279,0,0,1,2.742.537,2.222,2.222,0,0,1,.128,2.828,2.262,2.262,0,0,1-4.075-1.646Zm-4.024,1.02,3.477-1.049c.039.393.073.737.11,1.106H170.7Zm.345,1.133c1.052-.223,2.1-.482,3.162-.639.208-.031.475.332.715.514-.031.054-.062.108-.094.161h-3.77Z" fill="#e4dbca"/><path d="M249.539,67.058c.485.162.967.283,1.449.4s.964.235,1.446.353c-.612.061-1.209.033-1.8.07a1.173,1.173,0,0,1-1.053-.428,2.664,2.664,0,0,0-2.978-.638,2.732,2.732,0,0,0-1.7,2.534,3.1,3.1,0,0,0,.924,2.129l-.891.123,5.868,1.2-.017.062-6.31-.221-.018.18,5.472,1.316h-7.248V74.2L255,76.344V64.4C253.721,66.508,251.57,66.641,249.539,67.058Zm-2.913.293a2.233,2.233,0,0,1,3.179,1.529l.013-.006h0l-.011.013q.029.553.058,1.107c-.074-.005-.15-.02-.225-.029a.576.576,0,0,0-.22.007,7.415,7.415,0,0,0-.74.281c.357-.434.742-.9,1.127-1.366v-.007l-.514.3a2.14,2.14,0,0,1-2.965-.881A.593.593,0,0,1,246.626,67.351Zm2.537,3.623a2.218,2.218,0,0,1-2.637.338,2.283,2.283,0,0,1-1.022-2.638,6.674,6.674,0,0,0,.164.948,2.188,2.188,0,0,0,3.771.757A4.712,4.712,0,0,1,249.86,70,6.7,6.7,0,0,1,249.163,70.974Zm1.114-.621c.109-.457.376-.447,2.226.1Zm.705-1.071c-.627.005-.627.008-.644-.747l2.486.746C252.12,69.281,251.551,69.278,250.982,69.282Z" fill="#e4dbca"/><path d="M196.4,71.571c.673.114,1.363.126,2.046.183-.81-.641-1.631-1.138-2.421-1.68a5.451,5.451,0,0,1-1.96-1.971l2.089.7.066-.14c-.046-.051-.094-.1-.136-.154-1.09-1.386-2.169-2.78-3.272-4.155a16.841,16.841,0,0,0-1.818-2.1,4.513,4.513,0,0,0-3.821-1.118,5.877,5.877,0,0,1,4.849,5.575c.369,3.637-.774,6.49-4.751,7.737l12.972-.561A17.939,17.939,0,0,1,194.4,71.1C195.075,71.241,195.729,71.457,196.4,71.571Z" fill="#e4dbca"/><path d="M208.016,62.7a6.826,6.826,0,0,0-1.879,4.876,7.1,7.1,0,0,0,1.2,4.062,5.149,5.149,0,0,0,8.185.948,7.382,7.382,0,0,0,.592-9.307A5.139,5.139,0,0,0,208.016,62.7Zm6.815,9.357c-2.26,2.153-5.57,1.512-7.111-1.375a6.919,6.919,0,0,1-.768-3.256,5.927,5.927,0,0,1,2.272-4.687,4.144,4.144,0,0,1,5.432.235A6.446,6.446,0,0,1,214.831,72.052Z" fill="#e4dbca"/><path d="M234.363,62.864a6.452,6.452,0,0,0-2.195,5.069,7.16,7.16,0,0,0,1.436,4.483,3.891,3.891,0,0,0,5.5.912A5.449,5.449,0,0,0,241.2,70.24a7.029,7.029,0,0,0-1.511-7.082A3.726,3.726,0,0,0,234.363,62.864Zm6.427,5.3a6.2,6.2,0,0,1-1.38,3.869,3.181,3.181,0,0,1-5.046.113,6.636,6.636,0,0,1-.1-8.2,3.249,3.249,0,0,1,5.46.411A6.667,6.667,0,0,1,240.79,68.165Z" fill="#e4dbca"/><path d="M191.1,70.046A7.184,7.184,0,0,0,189.88,63.4a3.868,3.868,0,0,0-6.117-.179,6.466,6.466,0,0,0-1.677,4.268,7.5,7.5,0,0,0,1.267,4.607,3.956,3.956,0,0,0,6.456.391A5.633,5.633,0,0,0,191.1,70.046Zm-7.138,1.612a6.6,6.6,0,0,1,.458-8.1,3.119,3.119,0,0,1,4.582-.058A6.188,6.188,0,0,1,190.7,68a6.626,6.626,0,0,1-1.029,3.453A3.288,3.288,0,0,1,183.965,71.658Z" fill="#e4dbca"/><path d="M224.947,65.127a2.74,2.74,0,1,0,2.722,2.74A2.725,2.725,0,0,0,224.947,65.127Zm.766,4.85a2.152,2.152,0,0,1-2.366-.527,2.255,2.255,0,0,1-.538-2.328c.134,1.554.817,2.369,2.02,2.543a2.04,2.04,0,0,0,2.127-1.211l-1.152.407-.029-.078,1.137-.98-.1-.135c-.217.082-.432.174-.653.244A2.049,2.049,0,0,1,223.749,67c-.426-.715-.283-1.066.532-1.309a2.26,2.26,0,0,1,1.432,4.285Z" fill="#e4dbca"/><path d="M200.765,64.882a2.7,2.7,0,1,0,2.718,2.729A2.685,2.685,0,0,0,200.765,64.882Zm-.586,4.869a2.172,2.172,0,0,1-1.506-2.787,2.246,2.246,0,0,0,4.214,1.241A2.172,2.172,0,0,1,200.179,69.751Zm2.431-1.577c-.343.118-.673.273-1.053.43.473-.433.879-.8,1.286-1.174l-.089-.084a7.253,7.253,0,0,1-1.186.356,2.081,2.081,0,0,1-2.156-1.334.555.555,0,0,1,.251-.754,2.277,2.277,0,0,1,3.374,1.744C203.056,67.717,203.025,68.032,202.61,68.174Z" fill="#e4dbca"/><path d="M211.819,83.583v-.095c1.23,0,2.46.018,3.689,0,8.326-.149,16.654-.257,24.978-.483,3.609-.1,7.213-.425,10.815-.691a11.657,11.657,0,0,0,2.287-.476.98.98,0,0,0,.737-1.01,1.048,1.048,0,0,0-.766-1,4.8,4.8,0,0,0-1.184-.306c-3.134-.272-6.265-.637-9.405-.751-6.982-.254-13.966-.455-20.951-.54-13.714-.167-27.427-.085-41.132.524-3.031.134-6.056.417-9.08.673a8.636,8.636,0,0,0-1.891.452.939.939,0,0,0-.66.946,1,1,0,0,0,.636.967,2.73,2.73,0,0,0,.682.235c1.327.188,2.651.437,3.985.513,4.481.258,8.964.541,13.45.651C195.945,83.384,203.883,83.458,211.819,83.583Z" fill="#e4dbca"/><path d="M244.834,77.859v-.14c-3.772-.219-7.542-.511-11.318-.641-7.429-.254-14.86-.512-22.292-.6a254.466,254.466,0,0,0-25.8.933l-3.633.328C202.813,76.906,223.823,77.587,244.834,77.859Z" fill="#e4dbca"/><path d="M208.605,64.392a6.31,6.31,0,0,0-1.161,3.217,16.042,16.042,0,0,0,.666,2.332,3.918,3.918,0,0,0,6.491,1.291,5.429,5.429,0,0,0,.278-6.968A3.862,3.862,0,0,0,208.605,64.392Zm1.085,6.325a4.45,4.45,0,0,1-.98-4.662c-.221,2.062.246,3.735,2.029,4.713a2.943,2.943,0,0,0,3.633-.671A2.976,2.976,0,0,1,209.69,70.717Zm5.284-2.982a2.368,2.368,0,0,1-3.511.193,3.533,3.533,0,0,1-1.039-2.592c.01-.082.025-.249.051-.414.205-1.272.422-1.594,1.938-1.31a3.812,3.812,0,0,1,2.774,3.691A.744.744,0,0,1,214.974,67.735Z" fill="#e4dbca"/><path d="M234.669,64.481a5.052,5.052,0,0,0-1.339,3.449,5.288,5.288,0,0,0,1.043,3.24,2.958,2.958,0,0,0,4.58.4,5.308,5.308,0,0,0-.129-7.263A2.892,2.892,0,0,0,234.669,64.481Zm3.554,3.649a3.331,3.331,0,0,1-2.35.858c-.35.025-.7,0-1.109,0,.516.972,1.323,1.286,2.706,1.189a5.69,5.69,0,0,1-.96.364,1.972,1.972,0,0,1-2.324-1.565,4.448,4.448,0,0,1,.989-3.971,2.185,2.185,0,0,1,3.344-.017A2.6,2.6,0,0,1,238.223,68.13Z" fill="#e4dbca"/><path d="M188.71,64.158a2.9,2.9,0,0,0-4,.072,4.983,4.983,0,0,0-1.477,3.618,5.312,5.312,0,0,0,1.1,3.273,2.927,2.927,0,0,0,4.5.336A5.3,5.3,0,0,0,188.71,64.158ZM186.886,70.2a5.068,5.068,0,0,1-.6-.272,2.665,2.665,0,0,0,2.621-1.239c-.579,0-1.087.036-1.589-.006a2.643,2.643,0,0,1-2.526-2.573,1.93,1.93,0,0,1,2.527-1.917,2.8,2.8,0,0,1,1.724,1.567,4.81,4.81,0,0,1,.323,3.374A2.048,2.048,0,0,1,186.886,70.2Z" fill="#e4dbca"/><path d="M320.512,84.2a1.868,1.868,0,1,0-1.868-1.869A1.87,1.87,0,0,0,320.512,84.2Z" fill="#e4dbca"/><path d="M313.657,84.334a2,2,0,1,0-2-2.005A2.007,2.007,0,0,0,313.657,84.334Z" fill="#e4dbca"/><path d="M306.8,84.471a2.141,2.141,0,1,0-2.142-2.142A2.144,2.144,0,0,0,306.8,84.471Z" fill="#e4dbca"/><circle cx="299.949" cy="82.329" r="2.277" fill="#e4dbca"/><path d="M293.1,79.916a2.414,2.414,0,1,0,2.414,2.413A2.416,2.416,0,0,0,293.1,79.916Z" fill="#e4dbca"/><path d="M286.241,84.88a2.55,2.55,0,1,0-2.549-2.551A2.553,2.553,0,0,0,286.241,84.88Z" fill="#e4dbca"/><path d="M279.388,85.017a2.687,2.687,0,1,0-2.687-2.688A2.69,2.69,0,0,0,279.388,85.017Z" fill="#e4dbca"/><path d="M275.358,82.329a2.824,2.824,0,1,0-2.824,2.824A2.826,2.826,0,0,0,275.358,82.329Z" fill="#e4dbca"/><path d="M105.1,83.079a1.868,1.868,0,1,0-1.868-1.867A1.87,1.87,0,0,0,105.1,83.079Z" fill="#e4dbca"/><path d="M111.954,83.216a2,2,0,1,0-2-2A2.006,2.006,0,0,0,111.954,83.216Z" fill="#e4dbca"/><path d="M118.808,83.353a2.141,2.141,0,1,0-2.141-2.141A2.143,2.143,0,0,0,118.808,83.353Z" fill="#e4dbca"/><circle cx="125.662" cy="81.212" r="2.277" fill="#e4dbca"/><path d="M132.516,83.625a2.414,2.414,0,1,0-2.414-2.413A2.416,2.416,0,0,0,132.516,83.625Z" fill="#e4dbca"/><path d="M139.369,78.661a2.551,2.551,0,1,0,2.551,2.551A2.553,2.553,0,0,0,139.369,78.661Z" fill="#e4dbca"/><path d="M146.224,83.9a2.687,2.687,0,1,0-2.687-2.687A2.689,2.689,0,0,0,146.224,83.9Z" fill="#e4dbca"/><circle cx="153.077" cy="81.212" r="2.823" fill="#e4dbca"/></svg>